<?xml version="1.0" standalone="no"?>
<!DOCTYPE svg PUBLIC "-//W3C//DTD SVG 20010904//EN"
 "http://www.w3.org/TR/2001/REC-SVG-20010904/DTD/svg10.dtd">
<svg version="1.0" xmlns="http://www.w3.org/2000/svg"
 width="122.000000pt" height="122.000000pt" viewBox="0 0 122.000000 122.000000"
 preserveAspectRatio="xMidYMid meet">
<metadata>
Created by potrace 1.16, written by Peter Selinger 2001-2019
</metadata>
<g transform="translate(0.000000,122.000000) scale(0.100000,-0.100000)"
fill="#000000" stroke="none">
<path d="M307 429 c-26 -16 -51 -29 -57 -29 -26 0 -2 -19 88 -70 53 -30 103
-54 109 -54 7 1 11 -1 9 -5 -7 -11 93 -63 106 -55 7 4 8 3 4 -4 -5 -9 21 -32
37 -32 3 0 5 29 6 64 1 60 -1 66 -27 84 -55 39 -144 82 -154 76 -7 -4 -8 -2
-4 4 7 12 -27 35 -38 25 -3 -3 -6 -2 -6 4 0 23 -29 20 -73 -8z"/>
</g>
</svg>
